<?xml version="1.0" standalone="no"?>
<!DOCTYPE svg PUBLIC "-//W3C//DTD SVG 20010904//EN"
 "http://www.w3.org/TR/2001/REC-SVG-20010904/DTD/svg10.dtd">
<svg version="1.0" xmlns="http://www.w3.org/2000/svg"
 width="486.000000pt" height="417.000000pt" viewBox="0 0 486.000000 417.000000"
 preserveAspectRatio="xMidYMid meet">

<g transform="translate(0.000000,417.000000) scale(0.100000,-0.100000)"
fill="#000000" stroke="none">
<path d="M2365 4134 c-65 -6 -235 -34 -305 -51 -98 -23 -339 -145 -378 -191
-68 -82 -129 -141 -172 -167 -79 -49 -120 -86 -120 -108 0 -12 -13 -36 -28
-53 -15 -18 -52 -62 -82 -99 -30 -37 -60 -73 -65 -79 -10 -11 -37 -44 -99
-120 -17 -21 -38 -46 -46 -55 -8 -9 -31 -36 -50 -61 -19 -25 -42 -52 -50 -60
-8 -9 -40 -55 -70 -104 -30 -48 -77 -121 -105 -163 -27 -41 -55 -83 -61 -94
-16 -28 -59 -78 -126 -146 -44 -46 -68 -63 -87 -63 -33 0 -51 -17 -51 -46 0
-14 -17 -35 -46 -59 -55 -45 -114 -105 -114 -116 0 -14 40 3 63 27 12 13 25
24 30 24 19 0 2 -27 -46 -74 -50 -50 -81 -68 -140 -81 -21 -4 -27 -10 -23 -23
7 -24 -11 -43 -69 -71 -57 -28 -92 -57 -81 -68 4 -4 21 0 37 10 64 36 66 10 4
-53 -41 -41 -57 -70 -37 -70 4 0 54 50 112 110 l104 110 47 0 c59 0 68 -12 33
-45 -23 -21 -24 -26 -10 -31 11 -4 25 3 41 22 60 68 78 84 102 90 16 4 28 2
34 -7 6 -11 14 -9 38 9 37 27 44 17 36 -51 -8 -60 11 -464 29 -646 12 -115 15
-126 40 -148 15 -13 35 -23 45 -23 9 0 21 -4 27 -9 5 -6 43 -15 84 -20 125
-18 194 -37 275 -76 126 -60 116 -28 110 -373 -3 -163 -10 -349 -15 -412 -5
-63 -12 -179 -16 -257 l-6 -143 41 0 c23 0 42 1 42 3 2 3 12 312 28 812 6 204
15 438 21 520 5 83 12 380 15 660 5 507 18 826 37 960 32 226 48 304 68 330 4
6 10 22 13 36 4 14 18 38 32 53 27 29 32 55 14 73 -8 8 -3 23 20 57 17 25 35
48 40 51 6 3 30 36 55 73 80 120 165 210 226 241 25 13 79 40 120 62 41 21 81
39 88 39 7 0 20 4 30 10 22 12 112 28 222 41 47 5 98 14 114 19 74 25 352 -11
456 -60 137 -65 200 -101 239 -140 54 -53 115 -128 124 -152 6 -16 114 -187
158 -250 10 -15 19 -30 19 -33 0 -3 9 -16 21 -28 21 -22 53 -87 78 -157 27
-73 76 -188 119 -280 25 -52 48 -102 52 -110 4 -9 11 -31 15 -50 4 -19 10 -39
14 -45 14 -20 40 -123 56 -215 9 -52 21 -120 26 -150 6 -30 14 -89 19 -130 5
-41 11 -82 14 -90 6 -15 17 -114 41 -345 13 -119 24 -212 56 -445 6 -47 15
-93 20 -102 5 -9 9 -29 9 -43 0 -25 9 -66 46 -217 8 -32 14 -71 14 -88 0 -17
6 -56 14 -88 8 -31 22 -100 32 -152 17 -94 46 -220 59 -251 3 -9 10 -47 14
-85 5 -38 17 -94 26 -124 9 -30 21 -75 27 -100 5 -25 14 -49 19 -55 5 -5 9
-19 9 -32 0 -20 5 -23 41 -23 38 0 41 2 34 22 -13 44 -28 133 -27 170 1 20 -3
40 -8 43 -6 3 -10 15 -10 25 0 11 -6 34 -14 52 -13 30 -29 90 -73 273 -7 33
-21 98 -29 144 -18 97 -11 125 33 134 138 27 280 77 318 113 22 20 25 31 25
91 0 37 -7 100 -15 138 -8 39 -15 100 -15 137 0 37 -5 89 -10 115 -6 26 -15
86 -20 133 -13 106 -34 226 -55 310 -17 66 -32 230 -21 230 3 0 58 -51 122
-114 83 -82 125 -116 147 -120 21 -4 38 -16 48 -34 19 -34 99 -78 99 -55 0 15
-59 105 -72 111 -5 2 -8 10 -8 17 0 7 -3 15 -7 17 -5 2 -18 18 -31 36 -17 25
-22 41 -17 63 4 16 10 29 14 29 4 0 50 -34 102 -75 52 -41 97 -75 102 -75 17
0 4 19 -48 69 -30 30 -55 61 -55 71 0 16 -89 103 -158 153 -33 25 -82 74 -82
83 0 3 5 14 11 25 6 11 7 33 4 49 -9 39 -91 139 -121 146 -13 3 -24 12 -24 19
0 20 -40 65 -58 65 -9 0 -30 -14 -48 -31 l-32 -31 -23 25 c-77 79 -118 130
-239 292 -73 99 -136 182 -140 185 -7 5 -85 147 -141 260 -77 153 -178 274
-290 350 -65 44 -123 96 -185 165 -69 77 -154 143 -229 178 -38 18 -54 25
-138 61 -21 9 -46 16 -56 16 -10 0 -34 6 -52 14 -34 14 -281 27 -364 20z
m-1073 -752 c-7 -2 -12 -8 -12 -13 0 -5 -20 -36 -45 -70 -25 -34 -45 -67 -45
-74 0 -7 -3 -15 -7 -17 -5 -1 -23 -25 -42 -53 -48 -70 -81 -103 -81 -81 0 9 5
16 10 16 6 0 10 8 10 19 0 10 7 24 15 31 8 7 15 19 15 26 0 8 3 14 8 14 4 0
16 17 27 37 11 20 25 41 30 47 6 6 21 28 35 48 14 21 28 38 33 38 4 0 7 7 7
15 0 8 6 15 14 15 8 0 17 8 21 18 6 14 8 14 13 3 3 -8 0 -17 -6 -19z m2308 18
c0 -5 -2 -10 -4 -10 -3 0 -8 5 -11 10 -3 6 -1 10 4 10 6 0 11 -4 11 -10z
m-2325 -309 c3 -10 -1 -52 -9 -92 -21 -105 -35 -471 -42 -1099 -4 -299 -10
-567 -13 -595 -8 -62 -19 -65 -103 -27 -72 34 -142 54 -278 79 -52 9 -102 23
-112 31 -9 7 -19 34 -22 60 -7 57 -38 540 -38 602 -1 68 17 173 30 178 7 2 12
7 12 12 0 14 63 80 77 80 7 0 13 4 13 10 0 5 11 12 25 16 14 3 25 10 25 15 0
5 7 9 15 9 8 0 15 7 15 15 0 17 -25 20 -35 5 -3 -5 -15 -10 -26 -10 -13 0 -19
7 -19 24 0 23 29 65 98 141 37 41 57 68 69 95 4 8 12 20 19 25 26 22 133 177
164 237 36 71 44 86 83 145 15 24 27 47 27 53 0 17 18 11 25 -9z m2492 -103
c-3 -8 -6 -5 -6 6 -1 11 2 17 5 13 3 -3 4 -12 1 -19z m-2637 -28 c0 -5 -5 -10
-11 -10 -5 0 -7 5 -4 10 3 6 8 10 11 10 2 0 4 -4 4 -10z m2670 -3 c0 -7 8 -20
18 -29 27 -26 42 -46 42 -58 0 -5 7 -10 15 -10 8 0 15 -8 15 -19 0 -10 7 -24
15 -31 17 -14 20 -30 5 -30 -5 0 -10 7 -10 15 0 8 -5 15 -10 15 -6 0 -15 11
-20 25 -5 14 -14 25 -20 25 -5 0 -10 7 -10 15 0 8 -5 15 -10 15 -6 0 -14 8
-17 18 -4 9 -13 23 -20 30 -15 16 -17 32 -3 32 6 0 10 -6 10 -13z m-2695 -37
c6 -9 -27 -78 -43 -89 -4 -3 -18 -22 -29 -41 -12 -19 -30 -44 -40 -55 -10 -11
-34 -44 -54 -73 -41 -59 -139 -168 -139 -153 0 18 77 143 93 149 4 2 7 8 7 13
0 8 65 98 79 109 15 11 71 89 71 98 0 5 7 12 15 16 8 3 15 12 15 21 0 17 16
20 25 5z m-205 -54 c0 -8 -4 -18 -10 -21 -5 -3 -10 3 -10 14 0 12 5 21 10 21
6 0 10 -6 10 -14z m-30 -46 c0 -5 -4 -10 -10 -10 -5 0 -10 5 -10 10 0 6 5 10
10 10 6 0 10 -4 10 -10z m3002 -72 c65 -69 144 -186 132 -198 -14 -14 -48 20
-110 111 -32 46 -64 90 -71 97 -13 13 -18 42 -7 42 3 0 28 -24 56 -52z m-17
-88 c49 -72 140 -169 269 -285 49 -45 66 -67 66 -86 0 -15 11 -37 24 -50 19
-20 24 -37 28 -109 6 -91 23 -193 41 -250 6 -19 14 -55 18 -80 4 -25 15 -88
23 -140 16 -93 36 -258 56 -450 6 -52 12 -107 16 -121 4 -21 -1 -31 -22 -48
-15 -11 -36 -21 -48 -21 -12 0 -26 -4 -31 -9 -9 -9 -39 -18 -145 -43 -25 -6
-51 -15 -58 -21 -7 -5 -14 -8 -15 -6 -1 2 -8 11 -15 21 -7 9 -17 45 -23 80 -5
34 -14 77 -19 93 -18 63 -60 284 -70 375 -4 36 -13 108 -19 160 -6 52 -16 133
-21 180 -6 47 -15 128 -21 180 -12 113 -32 259 -54 390 -8 52 -20 125 -25 163
-5 37 -14 76 -20 87 -14 27 -13 73 3 68 6 -3 35 -38 62 -78z m294 -199 c29
-27 42 -71 22 -71 -5 0 -19 12 -30 28 -12 15 -25 32 -31 39 -12 15 -13 33 -1
33 5 0 23 -13 40 -29z m276 -307 c25 -25 45 -52 45 -59 0 -7 5 -15 12 -17 6
-2 9 -10 7 -16 -2 -7 -25 9 -54 39 -28 28 -58 58 -67 67 -17 16 -15 32 3 32 5
0 30 -21 54 -46z"/>
<path d="M1926 3897 c-30 -22 2 -65 38 -51 21 8 28 34 15 50 -14 17 -30 18
-53 1z"/>
<path d="M2880 3775 c-10 -12 -10 -18 0 -30 17 -21 54 -15 58 9 7 32 -36 48
-58 21z"/>
<path d="M2058 3731 c-36 -8 -142 -82 -221 -156 -21 -19 -53 -63 -71 -98 -17
-34 -40 -75 -51 -90 -23 -35 -64 -153 -65 -187 0 -13 -6 -42 -14 -65 -31 -91
-36 -115 -46 -215 -16 -163 -27 -233 -39 -264 -18 -45 -6 -542 14 -607 10 -31
101 -42 410 -49 165 -4 343 -13 396 -19 96 -12 135 -9 314 18 33 5 73 14 88
20 16 6 41 11 56 11 52 0 289 88 296 111 3 8 -2 53 -11 100 -9 46 -19 147 -23
224 -4 78 -12 150 -19 162 -7 12 -12 32 -12 45 0 47 -62 215 -130 353 -22 45
-40 87 -40 94 0 30 -74 159 -158 273 -118 161 -240 266 -374 319 -58 23 -231
35 -300 20z m238 -80 c80 -26 104 -40 197 -113 123 -96 263 -291 323 -448 9
-25 34 -81 54 -125 95 -199 114 -264 130 -445 6 -57 14 -129 19 -160 5 -30 13
-83 16 -117 l7 -61 -34 -16 c-56 -26 -120 -45 -133 -40 -7 3 -16 13 -19 22
-24 65 -114 162 -200 217 -76 48 -130 58 -229 44 -80 -12 -84 -11 -149 14 -74
30 -90 32 -139 16 -159 -51 -278 -168 -339 -333 l-10 -29 -73 7 c-39 4 -75 11
-79 14 -16 16 -12 391 5 587 20 226 32 301 75 465 37 139 49 175 76 220 12 19
30 52 40 73 17 34 72 90 162 167 16 14 45 33 64 42 49 23 162 23 236 -1z m-59
-1297 c3 -8 -4 -29 -16 -45 -26 -34 -25 -82 1 -87 9 -2 36 16 60 40 32 32 59
48 107 62 128 38 192 20 299 -83 114 -109 117 -139 20 -160 -110 -23 -218 -29
-393 -20 -93 5 -228 12 -298 16 -88 4 -130 10 -133 18 -17 43 116 196 211 243
68 34 132 41 142 16z"/>
</g>
</svg>
