<?xml version="1.0" standalone="no"?>
<!DOCTYPE svg PUBLIC "-//W3C//DTD SVG 20010904//EN"
 "http://www.w3.org/TR/2001/REC-SVG-20010904/DTD/svg10.dtd">
<svg version="1.0" xmlns="http://www.w3.org/2000/svg"
 width="348.000000pt" height="61.000000pt" viewBox="0 0 348.000000 61.000000"
 preserveAspectRatio="xMidYMid meet">

<g transform="translate(0.000000,61.000000) scale(0.100000,-0.100000)"
fill="#000000" stroke="none">
<path d="M274 568 c-23 -44 -264 -560 -264 -565 0 -2 34 -3 76 -1 l76 3 71
157 c39 87 74 155 78 150 4 -4 36 -74 72 -157 l64 -150 77 -3 c42 -2 76 1 76
5 0 7 -56 134 -212 481 -43 97 -54 112 -74 112 -16 0 -29 -10 -40 -32z"/>
<path d="M890 300 l0 -300 74 0 c74 0 74 0 94 34 43 72 164 100 233 53 19 -12
43 -37 54 -54 20 -32 21 -32 98 -33 77 0 78 0 71 23 -26 86 -78 147 -156 186
-103 52 -231 40 -292 -28 -11 -12 -23 -21 -28 -21 -4 0 -8 99 -8 220 l0 220
-70 0 -70 0 0 -300z"/>
<path d="M3210 345 l0 -115 -30 0 -30 0 0 -70 0 -70 30 0 c29 0 30 -2 30 -45
l0 -45 75 0 75 0 0 45 0 45 55 0 55 0 0 70 0 70 -55 0 -54 0 -3 113 -3 112
-72 3 -73 3 0 -116z"/>
<path d="M1854 219 c-69 -26 -124 -76 -162 -147 -18 -33 -32 -63 -32 -66 0 -3
33 -6 73 -6 l74 0 33 41 c39 50 82 69 151 69 63 0 121 -30 150 -77 20 -33 22
-33 95 -33 73 0 75 1 69 23 -25 82 -105 164 -192 197 -72 27 -189 26 -259 -1z"/>
<path d="M2480 115 l0 -115 75 0 76 0 -3 113 -3 112 -72 3 -73 3 0 -116z"/>
<path d="M2877 223 c-4 -3 -7 -55 -7 -115 l0 -108 75 0 75 0 0 115 0 115 -68
0 c-38 0 -72 -3 -75 -7z"/>
</g>
</svg>
