<?xml version="1.0" standalone="no"?>
<!DOCTYPE svg PUBLIC "-//W3C//DTD SVG 20010904//EN"
 "http://www.w3.org/TR/2001/REC-SVG-20010904/DTD/svg10.dtd">
<svg version="1.0" xmlns="http://www.w3.org/2000/svg"
 width="300.000000pt" height="300.000000pt" viewBox="0 0 300.000000 300.000000"
 preserveAspectRatio="xMidYMid meet">

<g transform="translate(0.000000,300.000000) scale(0.100000,-0.100000)"
fill="#000000" stroke="none">
<path d="M729 2703 c-36 -66 -115 -200 -165 -285 -19 -31 -34 -61 -34 -67 0
-8 71 -11 235 -11 129 0 235 -2 235 -6 0 -3 -26 -50 -57 -104 l-56 -100 -245
-2 -246 -3 -113 -195 c-62 -107 -113 -198 -113 -202 0 -5 326 -8 724 -8 l723
0 116 203 117 202 -241 3 c-132 1 -239 6 -237 10 2 4 28 51 58 104 l55 98 242
0 242 0 19 28 c25 36 222 378 222 386 0 3 -326 6 -724 6 l-725 0 -32 -57z"/>
<path d="M2333 2528 c-6 -7 -37 -60 -70 -118 -51 -89 -143 -250 -288 -500
-166 -287 -313 -543 -333 -580 l-25 -45 115 -199 c62 -109 118 -199 123 -200
5 0 60 87 121 194 62 107 117 196 122 198 6 2 30 -32 54 -75 25 -43 51 -88 59
-101 12 -20 12 -26 -2 -50 -8 -15 -51 -88 -94 -162 -43 -74 -91 -158 -106
-186 l-28 -50 115 -200 c64 -109 118 -201 121 -204 2 -3 9 2 14 10 14 23 218
375 431 745 64 110 152 263 197 340 44 77 81 147 81 155 0 14 -209 383 -227
401 -9 9 -17 -3 -161 -255 -97 -171 -81 -168 -163 -23 l-49 87 56 98 c99 170
184 320 184 325 0 6 -220 389 -230 400 -4 4 -11 2 -17 -5z"/>
<path d="M40 1496 c0 -2 41 -75 92 -163 50 -87 105 -183 123 -213 17 -30 58
-100 90 -155 77 -134 318 -551 373 -648 l44 -77 239 0 240 0 -12 23 c-7 12
-56 99 -110 192 -54 94 -101 178 -105 188 -6 16 3 17 116 15 l123 -3 120 -207
120 -208 239 0 239 0 -12 23 c-13 24 -315 548 -379 657 -21 36 -79 137 -130
225 -50 88 -106 185 -124 215 -18 30 -44 74 -56 98 l-24 42 -238 0 c-131 0
-238 -3 -238 -6 0 -3 22 -43 48 -88 87 -145 182 -312 182 -320 0 -3 -55 -5
-122 -4 l-122 3 -92 160 c-51 88 -105 181 -120 208 l-28 47 -238 0 c-131 0
-238 -2 -238 -4z"/>
</g>
</svg>
