<?xml version="1.0" standalone="no"?>
<!DOCTYPE svg PUBLIC "-//W3C//DTD SVG 20010904//EN"
 "http://www.w3.org/TR/2001/REC-SVG-20010904/DTD/svg10.dtd">
<svg version="1.0" xmlns="http://www.w3.org/2000/svg"
 width="225.000000pt" height="225.000000pt" viewBox="0 0 225.000000 225.000000"
 preserveAspectRatio="xMidYMid meet">

<g transform="translate(0.000000,225.000000) scale(0.100000,-0.100000)"
fill="#000000" stroke="none">
<path d="M975 2239 c-367 -46 -713 -302 -871 -643 -168 -365 -123 -814 114
-1132 319 -428 870 -578 1357 -368 61 26 84 41 81 51 -3 7 -185 263 -403 568
l-398 555 -3 -320 -2 -320 -60 0 -60 0 0 445 0 445 60 0 61 0 435 -657 c240
-362 440 -662 445 -667 25 -27 244 178 332 311 263 396 243 922 -48 1303 -60
78 -188 197 -272 253 -222 148 -495 210 -768 176z m537 -1094 c2 -206 1 -375
-2 -375 -3 0 -33 44 -68 98 l-62 99 0 276 0 277 65 0 65 0 2 -375z"/>
</g>
</svg>
