<svg width="500" height="488" version="1.1" xmlns="http://www.w3.org/2000/svg" desc="Created with imagetracer.js version 1.2.6" ><path fill="rgb(0,1,4)" stroke="rgb(0,1,4)" stroke-width="1" opacity="0.0392156862745098" d="M 0 0 L 78 0.5 L 60.5 4 L 46.5 10 Q 32.5 18 22 29.5 Q 4.8 47.3 0.5 78 L 0 0 Z " /><path fill="rgb(0,1,4)" stroke="rgb(0,1,4)" stroke-width="1" opacity="0.0392156862745098" d="M 422.5 0 L 500 0 L 500 77.5 L 499 77.5 L 499 72.5 L 496 60.5 L 490 46.5 Q 482 32.5 470.5 22 L 449.5 8 Q 438.6 1.9 422.5 1 L 422.5 0 Z " /><path fill="rgb(0,1,4)" stroke="rgb(0,1,4)" stroke-width="1" opacity="0.0392156862745098" d="M 0.5 410 L 3 424.5 L 10 441.5 Q 18 455.5 29.5 466 Q 47.3 483.3 78 487.5 L 0 488 L 0.5 410 Z " /><path fill="rgb(0,1,4)" stroke="rgb(0,1,4)" stroke-width="1" opacity="0.0392156862745098" d="M 499.5 410 L 500 488 L 422 487.5 L 436.5 485 L 453.5 478 Q 467.5 470 478 458.5 L 492 437.5 L 498 420.5 L 499.5 410 Z " /><path fill="rgb(0,24,51)" stroke="rgb(0,24,51)" stroke-width="1" opacity="0.996078431372549" d="M 78.5 0 L 88 0.5 L 78.5 1 L 78.5 0 Z " /><path fill="rgb(0,24,51)" stroke="rgb(0,24,51)" stroke-width="1" opacity="0.996078431372549" d="M 412.5 0 L 422 0.5 L 412.5 1 L 412.5 0 Z " /><path fill="rgb(0,24,51)" stroke="rgb(0,24,51)" stroke-width="1" opacity="0.996078431372549" d="M 72.5 1 L 75 1.5 L 72.5 2 L 72.5 1 Z " /><path fill="rgb(0,24,51)" stroke="rgb(0,24,51)" stroke-width="1" opacity="0.996078431372549" d="M 425.5 1 L 428 1.5 L 425.5 2 L 425.5 1 Z " /><path fill="rgb(0,24,51)" stroke="rgb(0,24,51)" stroke-width="1" opacity="0.996078431372549" d="M 67.5 2 L 70 2.5 L 67.5 3 L 67.5 2 Z " /><path fill="rgb(0,24,51)" stroke="rgb(0,24,51)" stroke-width="1" opacity="0.996078431372549" d="M 430.5 2 L 433 2.5 L 430.5 3 L 430.5 2 Z " /><path fill="rgb(0,24,51)" stroke="rgb(0,24,51)" stroke-width="1" opacity="0.996078431372549" d="M 434.5 3 L 437 3.5 L 434.5 4 L 434.5 3 Z " /><path fill="rgb(0,24,51)" stroke="rgb(0,24,51)" stroke-width="1" opacity="0.996078431372549" d="M 60.5 4 L 63 4.5 L 55.5 7 L 55.5 6 L 60.5 4 Z " /><path fill="rgb(0,24,51)" stroke="rgb(0,24,51)" stroke-width="1" opacity="0.996078431372549" d="M 438.5 4 L 445 6.5 L 443.5 7 L 438.5 5 L 438.5 4 Z " /><path fill="rgb(0,24,51)" stroke="rgb(0,24,51)" stroke-width="1" opacity="0.996078431372549" d="M 50.5 8 L 52 8.5 L 45.5 12 L 46.5 10 L 50.5 8 Z " /><path fill="rgb(0,24,51)" stroke="rgb(0,24,51)" stroke-width="1" opacity="0.996078431372549" d="M 448.5 8 L 455 11.5 L 453.5 11 L 448.5 9 L 448.5 8 Z " /><path fill="rgb(0,24,51)" stroke="rgb(0,24,51)" stroke-width="1" opacity="0.996078431372549" d="M 43.5 12 L 42.5 14 L 36.5 18 L 38.5 15 L 43.5 12 Z " /><path fill="rgb(0,24,51)" stroke="rgb(0,24,51)" stroke-width="1" opacity="0.996078431372549" d="M 456.5 12 L 464 17.5 L 461.5 16 Q 456.9 14.8 456.5 12 Z " /><path fill="rgb(0,24,51)" stroke="rgb(0,24,51)" stroke-width="1" opacity="0.996078431372549" d="M 34.5 18 L 30.5 23 L 23 29.5 L 18.5 35 L 22 30.5 L 29.5 22 L 34.5 18 Z " /><path fill="rgb(0,24,51)" stroke="rgb(0,24,51)" stroke-width="1" opacity="0.996078431372549" d="M 465.5 18 L 478 29.5 L 482 34.5 L 477 30.5 L 470.5 23 L 465.5 18 Z " /><path fill="rgb(0,24,51)" stroke="rgb(0,24,51)" stroke-width="1" opacity="0.996078431372549" d="M 17.5 36 L 16 38.5 L 12.5 44 L 13 42.5 L 17.5 36 Z " /><path fill="rgb(0,24,51)" stroke="rgb(0,24,51)" stroke-width="1" opacity="0.996078431372549" d="M 482.5 36 L 488 43.5 L 486 42.5 L 482.5 36 Z " /><path fill="rgb(0,24,51)" stroke="rgb(0,24,51)" stroke-width="1" opacity="0.996078431372549" d="M 11.5 45 L 11 46.5 L 8.5 52 L 8 50.5 L 11.5 45 Z " /><path fill="rgb(0,24,51)" stroke="rgb(0,24,51)" stroke-width="1" opacity="0.996078431372549" d="M 488.5 45 L 492 51.5 L 491 51.5 L 488.5 45 Z " /><path fill="rgb(0,24,51)" stroke="rgb(0,24,51)" stroke-width="1" opacity="0.996078431372549" d="M 6.5 55 L 7 56.5 L 3.5 66 L 3 63.5 L 6.5 55 Z " /><path fill="rgb(0,24,51)" stroke="rgb(0,24,51)" stroke-width="1" opacity="0.996078431372549" d="M 494.5 58 L 496 62.5 L 495 62.5 L 494.5 58 Z " /><path fill="rgb(0,24,51)" stroke="rgb(0,24,51)" stroke-width="1" opacity="0.996078431372549" d="M 2.5 67 L 3 69.5 L 2 69.5 L 2.5 67 Z " /><path fill="rgb(0,24,51)" stroke="rgb(0,24,51)" stroke-width="1" opacity="0.996078431372549" d="M 497.5 67 L 498 69.5 L 497 69.5 L 497.5 67 Z " /><path fill="rgb(0,24,51)" stroke="rgb(0,24,51)" stroke-width="1" opacity="0.996078431372549" d="M 1.5 72 L 2 75.5 L 1 75.5 L 1.5 72 Z " /><path fill="rgb(0,24,51)" stroke="rgb(0,24,51)" stroke-width="1" opacity="0.996078431372549" d="M 498.5 72 L 499 75.5 L 498 75.5 L 498.5 72 Z " /><path fill="rgb(0,24,51)" stroke="rgb(0,24,51)" stroke-width="1" opacity="0.996078431372549" d="M 0.5 78 L 1 88.5 L 0 88.5 L 0.5 78 Z " /><path fill="rgb(0,24,51)" stroke="rgb(0,24,51)" stroke-width="1" opacity="0.996078431372549" d="M 499.5 78 L 500 88.5 L 499 88.5 L 499.5 78 Z " /><path fill="rgb(0,24,51)" stroke="rgb(0,24,51)" stroke-width="1" opacity="0.996078431372549" d="M 0.5 399 L 1 409.5 L 0 409.5 L 0.5 399 Z " /><path fill="rgb(0,24,51)" stroke="rgb(0,24,51)" stroke-width="1" opacity="0.996078431372549" d="M 499.5 399 L 500 409.5 L 499 409.5 L 499.5 399 Z " /><path fill="rgb(0,24,51)" stroke="rgb(0,24,51)" stroke-width="1" opacity="0.996078431372549" d="M 1.5 412 L 2 415.5 L 1 415.5 L 1.5 412 Z " /><path fill="rgb(0,24,51)" stroke="rgb(0,24,51)" stroke-width="1" opacity="0.996078431372549" d="M 498.5 412 L 499 415.5 L 498 415.5 L 498.5 412 Z " /><path fill="rgb(0,24,51)" stroke="rgb(0,24,51)" stroke-width="1" opacity="0.996078431372549" d="M 2.5 418 L 3 420.5 L 2 420.5 L 2.5 418 Z " /><path fill="rgb(0,24,51)" stroke="rgb(0,24,51)" stroke-width="1" opacity="0.996078431372549" d="M 497.5 418 L 498 420.5 L 497 420.5 L 497.5 418 Z " /><path fill="rgb(0,24,51)" stroke="rgb(0,24,51)" stroke-width="1" opacity="0.996078431372549" d="M 3.5 422 L 7 432.5 L 6 432.5 L 3 424.5 L 3.5 422 Z " /><path fill="rgb(0,24,51)" stroke="rgb(0,24,51)" stroke-width="1" opacity="0.996078431372549" d="M 495.5 425 L 496 427.5 L 494.5 430 L 494 428.5 L 495.5 425 Z " /><path fill="rgb(0,24,51)" stroke="rgb(0,24,51)" stroke-width="1" opacity="0.996078431372549" d="M 8.5 436 L 12 442.5 L 10 441.5 L 8.5 436 Z " /><path fill="rgb(0,24,51)" stroke="rgb(0,24,51)" stroke-width="1" opacity="0.996078431372549" d="M 491.5 436 L 492 437.5 L 489.5 441 L 490 439.5 L 491.5 436 Z " /><path fill="rgb(0,24,51)" stroke="rgb(0,24,51)" stroke-width="1" opacity="0.996078431372549" d="M 12.5 444 L 18 451.5 L 15 449.5 L 12.5 444 Z " /><path fill="rgb(0,24,51)" stroke="rgb(0,24,51)" stroke-width="1" opacity="0.996078431372549" d="M 487.5 444 L 487 445.5 L 482.5 452 L 484 449.5 L 487.5 444 Z " /><path fill="rgb(0,24,51)" stroke="rgb(0,24,51)" stroke-width="1" opacity="0.996078431372549" d="M 18.5 453 L 29.5 465 L 35 469.5 L 30.5 466 L 22 458.5 L 18.5 453 Z " /><path fill="rgb(0,24,51)" stroke="rgb(0,24,51)" stroke-width="1" opacity="0.996078431372549" d="M 481.5 453 L 478 457.5 L 470.5 466 L 465.5 470 L 469.5 465 L 477 458.5 L 481.5 453 Z " /><path fill="rgb(0,24,51)" stroke="rgb(0,24,51)" stroke-width="1" opacity="0.996078431372549" d="M 36.5 470 L 44 475.5 L 42.5 475 Q 37.5 473.5 36.5 470 Z " /><path fill="rgb(0,24,51)" stroke="rgb(0,24,51)" stroke-width="1" opacity="0.996078431372549" d="M 463.5 470 L 461.5 473 L 456.5 476 L 457.5 474 L 463.5 470 Z " /><path fill="rgb(0,24,51)" stroke="rgb(0,24,51)" stroke-width="1" opacity="0.996078431372549" d="M 45.5 476 L 52 479.5 L 50.5 480 Q 45.9 478.8 45.5 476 Z " /><path fill="rgb(0,24,51)" stroke="rgb(0,24,51)" stroke-width="1" opacity="0.996078431372549" d="M 454.5 476 L 453.5 478 L 448.5 480 L 448.5 479 L 454.5 476 Z " /><path fill="rgb(0,24,51)" stroke="rgb(0,24,51)" stroke-width="1" opacity="0.996078431372549" d="M 55.5 481 L 63 483.5 L 60.5 484 L 55.5 482 L 55.5 481 Z " /><path fill="rgb(0,24,51)" stroke="rgb(0,24,51)" stroke-width="1" opacity="0.996078431372549" d="M 443.5 481 L 445 481.5 L 438.5 484 L 438.5 483 L 443.5 481 Z " /><path fill="rgb(0,24,51)" stroke="rgb(0,24,51)" stroke-width="1" opacity="0.996078431372549" d="M 434.5 484 L 437 484.5 L 434.5 485 L 434.5 484 Z " /><path fill="rgb(0,24,51)" stroke="rgb(0,24,51)" stroke-width="1" opacity="0.996078431372549" d="M 67.5 485 L 70 485.5 L 67.5 486 L 67.5 485 Z " /><path fill="rgb(0,24,51)" stroke="rgb(0,24,51)" stroke-width="1" opacity="0.996078431372549" d="M 430.5 485 L 433 485.5 L 430.5 486 L 430.5 485 Z " /><path fill="rgb(0,24,51)" stroke="rgb(0,24,51)" stroke-width="1" opacity="0.996078431372549" d="M 72.5 486 L 75 486.5 L 72.5 487 L 72.5 486 Z " /><path fill="rgb(0,24,51)" stroke="rgb(0,24,51)" stroke-width="1" opacity="0.996078431372549" d="M 425.5 486 L 428 486.5 L 425.5 487 L 425.5 486 Z " /><path fill="rgb(0,24,51)" stroke="rgb(0,24,51)" stroke-width="1" opacity="0.996078431372549" d="M 78.5 487 L 88 487.5 L 78.5 488 L 78.5 487 Z " /><path fill="rgb(0,24,51)" stroke="rgb(0,24,51)" stroke-width="1" opacity="0.996078431372549" d="M 412.5 487 L 422 487.5 L 412.5 488 L 412.5 487 Z " /><path fill="rgb(0,24,51)" stroke="rgb(0,24,51)" stroke-width="1" opacity="1" d="M 88.5 0 L 411.5 0 L 412.5 1 L 429.5 2 L 445.5 7 Q 464.3 15.2 477 29.5 Q 486.8 40.2 493 54.5 L 498 70.5 L 499 88.5 L 500 89.5 L 500 398.5 L 499 399.5 L 498 417.5 L 493 433.5 Q 484.8 452.3 470.5 465 Q 459.8 474.8 445.5 481 L 429.5 486 L 412.5 487 L 411.5 488 L 88.5 488 L 87.5 487 L 70.5 486 L 54.5 481 Q 35.7 472.8 23 458.5 Q 13.2 447.8 7 433.5 L 2 417.5 L 1 399.5 L 0 398.5 L 0 89.5 L 1 88.5 L 2 70.5 L 7 54.5 Q 15.2 35.7 29.5 23 Q 40.2 13.2 54.5 7 L 70.5 2 L 87.5 1 L 88.5 0 Z M 152 124 L 151 125 L 115 125 L 112 129 L 112 342 L 113 343 L 114 345 L 156 345 L 158 343 L 158 275 L 197 275 L 214 272 L 229 267 L 244 258 Q 254 251 260 240 L 267 224 L 270 208 Q 271 170 254 152 Q 240 135 216 128 L 201 125 L 193 125 L 192 124 L 152 124 Z M 346 176 L 326 181 L 312 189 Q 297 199 293 220 Q 291 232 294 241 Q 297 251 304 259 Q 311 267 322 272 Q 335 280 353 285 L 365 292 L 368 297 L 367 305 L 363 309 L 356 311 L 334 311 Q 332 309 327 310 L 315 307 L 294 298 L 292 300 L 292 338 L 299 342 L 311 346 L 329 348 L 330 349 Q 373 353 396 335 Q 409 325 413 306 L 413 288 L 412 283 L 403 267 Q 393 256 380 250 L 361 243 L 343 234 L 336 227 L 337 220 L 343 215 L 351 213 L 364 213 L 365 214 L 373 214 L 383 216 L 400 223 Q 404 224 405 222 L 405 186 L 404 183 L 397 180 L 383 177 L 375 177 L 374 176 L 346 176 Z " /><path fill="rgb(0,24,51)" stroke="rgb(0,24,51)" stroke-width="1" opacity="1" d="M 159.5 165 L 188.5 165 Q 190 167.5 195.5 166 Q 211.1 168.9 219 179.5 L 224 190.5 L 225 201.5 L 222 215.5 L 212.5 227 L 203.5 232 L 191.5 235 Q 186.8 233.7 185.5 236 L 158 236 L 158 166.5 L 159.5 165 Z " /><path fill="rgb(44,167,253)" stroke="rgb(44,167,253)" stroke-width="1" opacity="1" d="M 151.5 124 L 191.5 124 L 192.5 125 L 200.5 125 L 215.5 128 Q 239.8 134.7 254 151.5 Q 271.4 170.1 270 207.5 L 267 223.5 L 260 239.5 Q 253.5 250.5 243.5 258 L 228.5 267 L 213.5 272 L 196.5 275 L 158 275 L 158 342.5 L 155.5 345 L 113.5 345 L 113 342.5 L 112 341.5 L 112 128.5 L 114.5 125 L 150.5 125 L 151.5 124 Z M 160 165 L 158 167 L 158 236 L 186 236 Q 187 234 192 235 L 204 232 L 213 227 L 222 216 L 225 202 L 224 191 L 219 180 Q 211 169 196 166 Q 190 168 189 165 L 160 165 Z " /><path fill="rgb(44,167,253)" stroke="rgb(44,167,253)" stroke-width="1" opacity="1" d="M 345.5 176 L 373.5 176 L 374.5 177 L 382.5 177 L 396.5 180 L 404 183 L 405 185.5 L 405 221.5 Q 404 224 399.5 223 L 382.5 216 L 372.5 214 L 364.5 214 L 363.5 213 L 350.5 213 L 342.5 215 L 337 219.5 L 336 226.5 L 342.5 234 L 360.5 243 L 379.5 250 Q 393.1 256.4 403 266.5 L 412 282.5 L 413 287.5 L 413 305.5 Q 408.9 324.9 395.5 335 Q 373.2 352.7 329.5 349 L 328.5 348 L 310.5 346 L 298.5 342 L 292 337.5 L 292 299.5 L 293.5 298 L 314.5 307 L 326.5 310 Q 332 308.5 333.5 311 L 355.5 311 L 362.5 309 L 367 304.5 L 368 296.5 L 364.5 292 L 352.5 285 Q 335.4 280.1 321.5 272 Q 311.2 266.8 304 258.5 Q 297.1 251.4 294 240.5 Q 291.3 232.2 293 219.5 Q 297.4 199.4 311.5 189 L 325.5 181 L 345.5 176 Z " /></svg>