<?xml version="1.0" standalone="no"?>
<!DOCTYPE svg PUBLIC "-//W3C//DTD SVG 20010904//EN"
 "http://www.w3.org/TR/2001/REC-SVG-20010904/DTD/svg10.dtd">
<svg version="1.0" xmlns="http://www.w3.org/2000/svg"
 width="232.000000pt" height="173.000000pt" viewBox="0 0 232.000000 173.000000"
 preserveAspectRatio="xMidYMid meet">

<g transform="translate(0.000000,173.000000) scale(0.100000,-0.100000)"
fill="#000000" stroke="none">
<path d="M679 1672 c-25 -16 -51 -43 -58 -59 -9 -21 -11 -96 -9 -266 l3 -236
35 -36 c61 -63 148 -71 210 -18 57 48 60 61 60 306 0 216 -1 225 -22 257 -34
49 -71 72 -125 77 -40 4 -55 0 -94 -25z m115 -83 l26 -20 0 -203 c0 -225 -5
-246 -60 -246 -55 0 -60 22 -60 245 0 110 4 205 8 211 7 11 42 33 53 34 4 0
18 -9 33 -21z"/>
<path d="M70 1360 l0 -330 45 0 44 0 3 123 3 122 58 6 c65 7 100 28 134 79 20
29 23 46 23 130 0 84 -3 102 -23 131 -36 54 -77 69 -189 69 l-98 0 0 -330z
m200 215 c16 -15 20 -31 20 -84 0 -43 -5 -74 -15 -88 -17 -24 -64 -38 -95 -28
-18 6 -20 15 -20 110 0 66 4 105 11 107 27 9 80 0 99 -17z"/>
<path d="M1160 1377 c0 -174 3 -322 6 -331 4 -11 19 -16 50 -16 l43 0 3 123 3
122 35 3 35 3 29 -126 29 -125 52 0 52 0 -35 143 -36 144 25 34 c22 31 24 44
24 140 0 115 -8 140 -53 174 -23 17 -46 21 -144 23 l-118 4 0 -315z m210 196
c11 -10 15 -35 15 -88 0 -89 -13 -108 -77 -109 l-43 -1 -3 99 c-1 55 -1 105 2
112 6 16 85 7 106 -13z"/>
<path d="M1710 1645 l0 -45 43 -1 c23 -1 45 -1 50 0 9 1 8 25 7 -255 0 -127 2
-250 6 -273 7 -41 7 -41 50 -41 l44 0 2 283 3 282 53 3 52 3 0 45 0 44 -155 0
-155 0 0 -45z"/>
<path d="M2160 1365 l0 -45 65 0 65 0 0 45 0 45 -65 0 -65 0 0 -45z"/>
<path d="M674 716 c-17 -7 -45 -31 -62 -52 l-32 -39 0 -233 c0 -261 3 -273 67
-317 73 -49 178 -24 221 54 22 40 23 46 20 270 -3 214 -4 232 -24 257 -11 15
-31 36 -45 46 -33 24 -106 32 -145 14z m98 -103 c16 -15 18 -35 18 -221 0
-226 -4 -242 -61 -242 -53 0 -59 23 -59 240 0 161 3 199 16 218 18 26 60 29
86 5z"/>
<path d="M2062 713 c-18 -9 -45 -32 -60 -51 l-27 -35 0 -238 c0 -225 1 -239
21 -266 88 -118 254 -89 285 51 7 32 10 125 7 246 -3 186 -4 197 -27 234 -42
66 -131 93 -199 59z m109 -100 c11 -12 15 -64 17 -209 3 -161 1 -197 -13 -223
-12 -23 -22 -31 -43 -31 -64 1 -72 26 -72 235 0 211 9 245 63 245 20 0 40 -7
48 -17z"/>
<path d="M72 388 l3 -333 40 -1 40 0 5 140 5 141 68 3 67 3 0 49 0 50 -70 0
-70 0 0 90 0 90 95 0 95 0 0 50 0 50 -140 0 -140 0 2 -332z"/>
<path d="M1140 391 c0 -291 2 -330 16 -335 24 -9 227 -7 242 3 8 5 12 23 10
47 l-3 39 -85 5 -85 5 -3 283 -2 282 -45 0 -45 0 0 -329z"/>
<path d="M1630 390 c0 -257 3 -330 13 -331 6 0 23 -2 37 -3 51 -6 50 -16 50
335 l0 329 -50 0 -50 0 0 -330z"/>
</g>
</svg>
